<?xml version="1.0" encoding="utf-8"?>
<!-- Generator: Adobe Illustrator 16.0.0, SVG Export Plug-In . SVG Version: 6.00 Build 0)  -->
<!DOCTYPE svg PUBLIC "-//W3C//DTD SVG 1.1//EN" "http://www.w3.org/Graphics/SVG/1.1/DTD/svg11.dtd">
<svg version="1.1" id="Layer_1" xmlns="http://www.w3.org/2000/svg" xmlns:xlink="http://www.w3.org/1999/xlink" x="0px" y="0px"
	 width="250px" height="150px" viewBox="0 0 250 150" enable-background="new 0 0 250 150" xml:space="preserve">
<g>
	<path d="M221.096,4H28.905C15.171,4,3.932,16.48,3.932,31.731v53.876c0,15.253,11.24,27.731,24.973,27.731h142.339L206.006,146
		l-0.029-32.661h15.119c13.734,0,24.973-12.479,24.973-27.731V31.731C246.068,16.48,234.83,4,221.096,4z"/>
	<path fill="#FFFFFF" d="M215.166,9.414H34.833C21.945,9.414,11.4,20.376,11.4,33.776v47.33c0,13.399,10.545,24.362,23.432,24.362
		h133.558l32.301,26.395l0.29-26.395h14.185c12.889,0,23.434-10.963,23.434-24.362v-47.33C238.6,20.376,228.055,9.414,215.166,9.414
		z"/>
</g>
</svg>
